<svg width="100" height="100" viewBox="0 0 100 100" fill="none" xmlns="http://www.w3.org/2000/svg">
<rect width="100" height="100" rx="50" fill="#070838"/>
<path d="M49.901 24.09C45.141 24.09 41.361 25.42 38.561 28.15C35.831 30.88 34.431 34.38 34.431 38.72C34.431 46.56 38.981 50.62 48.501 53.7C54.731 55.73 57.181 57.62 57.181 60.91C57.181 64.2 54.731 66.44 50.741 66.44C45.841 66.44 43.251 63.99 43.041 59.02H33.311C33.591 68.61 39.681 74.91 50.601 74.91C55.361 74.91 59.281 73.58 62.291 70.99C65.371 68.33 66.911 64.69 66.911 60.07C66.911 52.58 63.061 48.31 52.771 44.88C49.481 43.69 47.171 42.71 45.981 41.8C44.791 40.89 44.161 39.63 44.161 37.88C44.161 34.52 46.261 32.63 49.691 32.63C53.121 32.63 55.571 34.87 55.641 38.72H65.371C65.021 29.2 59.211 24.09 49.901 24.09Z" fill="white"/>
</svg>
